Coordinates
version=1
nRows=39
nColumns=18
inDegrees=yes

Units are S.I. units (second, meters, Newtons, ...)
If the header above contains a line with 'inDegrees', this indicates whether rotational values are in degrees (yes) or radians (no).

endheader
time	ground_thorax_rot_x	ground_thorax_rot_y	ground_thorax_rot_z	ground_thorax_tx	ground_thorax_ty	ground_thorax_tz	clav_prot	clav_elev	scapula_abduction	scapula_elevation	scapula_upward_rot	scapula_winging	plane_elv	shoulder_elv	axial_rot	elbow_flexion	pro_sup
      0.00000000	      1.57857938	     -5.46486613	    -10.34513540	      0.00000000	      0.00000000	      0.00000000	    -22.51805031	     -5.13812507	    -11.15887122	     -5.12317673	     14.75509528	      5.24054371	    -31.88530438	     14.27479716	     56.23372091	      0.00000000	     34.32000000
      0.01000000	      1.61718052	     -5.40256531	    -10.36362141	      0.00000000	      0.00000000	      0.00000000	    -22.57926525	     -5.11116101	    -11.27365690	     -5.10503758	     14.75062215	      5.23463712	    -31.67667650	     14.29444591	     56.04451623	      0.00000000	     34.32000000
      0.02000000	      1.44599377	     -5.38023838	    -10.40400591	      0.00000000	      0.00000000	      0.00000000	    -22.58394139	     -5.30415325	    -11.35948653	     -5.20007386	     14.54246670	      5.35539867	    -30.75887811	     14.73660455	     49.93951969	      0.00000000	     34.32000000
      0.03000000	      1.44393357	     -5.33778581	    -10.40046150	      0.00000000	      0.00000000	      0.00000000	    -22.64243597	     -5.32899762	    -11.46448878	     -5.21842247	     14.52595135	      5.37111034	    -30.85730854	     14.82422774	     49.67694097	      0.00000000	     34.32000000
      0.04000000	      1.49132609	     -5.32073867	    -10.44213612	      0.00000000	      0.00000000	      0.00000000	    -22.67114633	     -5.33971271	    -11.60367988	     -5.18883887	     14.37080965	      5.41402198	    -29.55670498	     15.08330377	     47.25375940	      0.00000000	     34.32000000
      0.05000000	      1.32852838	     -5.47035417	    -10.50277555	      0.00000000	      0.00000000	      0.00000000	    -22.52987797	     -5.52040408	    -11.24032518	     -5.35161663	     14.49963014	      5.44213109	    -31.02642363	     14.86680820	     49.44073819	      0.00000000	     34.32000000
      0.06000000	      1.33778159	     -5.39673429	    -10.47757334	      0.00000000	      0.00000000	      0.00000000	    -22.52958516	     -5.47670068	    -11.25465373	     -5.31622644	     14.49225171	      5.42832643	    -30.99848659	     14.87867632	     49.46645962	      0.00000000	     34.32000000
      0.07000000	      1.50508775	     -5.30445960	    -10.32816847	      0.00000000	      0.00000000	      0.00000000	    -22.58627223	     -5.24638186	    -11.43752564	     -5.13012397	     14.44105106	      5.35933194	    -30.63041191	     14.92330228	     50.20169793	      0.00000000	     34.32000000
      0.08000000	      1.19376112	     -5.16850509	    -10.55861101	      0.00000000	      0.00000000	      0.00000000	    -22.65839535	     -5.74014057	    -11.73431628	     -5.38806241	     13.95245354	      5.66239988	    -29.00539671	     15.63492105	     43.12742614	      0.00000000	     34.32000000
      0.09000000	      1.24490641	     -5.18911461	    -10.57002254	      0.00000000	      0.00000000	      0.00000000	    -22.64390263	     -5.70612929	    -11.71842903	     -5.36060026	     13.95049512	      5.64973647	    -28.99965287	     15.60754790	     43.16804206	      0.00000000	     34.32000000
      0.10000000	      1.46371571	     -5.47316174	    -10.41709789	      0.00000000	      0.00000000	      0.00000000	    -22.37535659	     -5.38831468	    -11.10270337	     -5.19893424	     14.33405530	      5.42657454	    -29.59502154	     15.66049111	     42.47917487	      0.00000000	     34.32000000
      0.11000000	      1.26458325	     -5.44724213	    -10.44413913	      0.00000000	      0.00000000	      0.00000000	    -22.32913373	     -5.67220497	    -11.09982473	     -5.35193152	     14.09154719	      5.58764454	    -29.99989387	     15.75871304	     43.00253707	      0.00000000	     34.32000000
      0.12000000	      1.26007040	     -5.46833075	    -10.46956390	      0.00000000	      0.00000000	      0.00000000	    -22.33394476	     -5.64585057	    -11.09834391	     -5.33869546	     14.11807009	      5.57139046	    -29.97858667	     15.75076183	     43.03942506	      0.00000000	     34.32000000
      0.13000000	      1.65738473	     -5.62033309	    -10.35790913	      0.00000000	      0.00000000	      0.00000000	    -22.29779362	     -5.07668462	    -10.72976737	     -5.08963423	     14.86005194	      5.18174082	    -32.43481483	     14.42836965	     56.46021887	      0.00000000	     34.32000000
      0.14000000	      1.65750205	     -5.62478863	    -10.34374843	      0.00000000	      0.00000000	      0.00000000	    -22.30524149	     -5.06502897	    -10.74950152	     -5.07950350	     14.85371901	      5.17939433	    -32.37858288	     14.46486960	     56.33396622	      0.00000000	     34.32000000
      0.15000000	      1.62866655	     -5.52861419	    -10.34740363	      0.00000000	      0.00000000	      0.00000000	    -22.39768151	     -5.12280254	    -10.92084487	     -5.11842210	     14.81100242	      5.21540850	    -32.30631336	     14.47876116	     56.07328465	      0.00000000	     34.32000000
      0.16000000	      1.58762607	     -5.49368386	    -10.35547518	      0.00000000	      0.00000000	      0.00000000	    -22.42864578	     -5.17568097	    -11.00471976	     -5.14240808	     14.73891030	      5.25361385	    -32.24609044	     14.51044178	     55.98256804	      0.00000000	     34.32000000
      0.17000000	      1.30675667	     -5.34004031	    -10.49218696	      0.00000000	      0.00000000	      0.00000000	    -22.48306535	     -5.69058755	    -11.44500256	     -5.33861671	     13.94910285	      5.63635336	    -29.00792529	     15.91570862	     41.73698643	      0.00000000	     34.32000000
      0.18000000	      1.36752864	     -5.44373409	    -10.50846104	      0.00000000	      0.00000000	      0.00000000	    -22.45854705	     -5.61020195	    -11.32676714	     -5.31672722	     14.10997202	      5.56668792	    -28.94477596	     15.71972886	     42.04998676	      0.00000000	     34.32000000
      0.19000000	      1.58507201	     -5.53029565	    -10.41672011	      0.00000000	      0.00000000	      0.00000000	    -22.51676649	     -5.17100155	    -11.12618958	     -5.15775800	     14.79269778	      5.24316139	    -32.09326654	     14.21785190	     56.89365180	      0.00000000	     34.32000000
      0.20000000	      1.36873913	     -5.50584466	    -10.36609449	      0.00000000	      0.00000000	      0.00000000	    -22.41297240	     -5.43216024	    -11.20093301	     -5.21600056	     14.26051157	      5.46241314	    -30.13287771	     15.27180115	     46.12530743	      0.00000000	     34.32000000
      0.21000000	      1.40106823	     -5.60248299	    -10.44146785	      0.00000000	      0.00000000	      0.00000000	    -22.41347832	     -5.46697349	    -11.05841908	     -5.30075762	     14.48824517	      5.41980327	    -31.18226965	     14.81957327	     51.07543258	      0.00000000	     34.32000000
      0.22000000	      1.44155396	     -5.62038695	    -10.40242472	      0.00000000	      0.00000000	      0.00000000	    -22.43145484	     -5.46168380	    -11.08065660	     -5.30225360	     14.50563487	      5.41470692	    -31.16537683	     14.83206306	     51.09169506	      0.00000000	     34.32000000
      0.23000000	      1.44564610	     -5.65238647	    -10.30492628	      0.00000000	      0.00000000	      0.00000000	    -22.37424125	     -5.49069336	    -11.11866048	     -5.25924565	     14.26321217	      5.48128605	    -30.52729898	     15.13374358	     49.50594154	      0.00000000	     34.32000000
      0.24000000	      1.40086413	     -5.33796245	    -10.51620367	      0.00000000	      0.00000000	      0.00000000	    -22.73891934	     -5.64362198	    -11.74953269	     -5.38246570	     14.20086753	      5.57026403	    -29.76386436	     15.10452127	     47.23225299	      0.00000000	     34.32000000
      0.25000000	      1.30171760	     -5.49883322	    -10.31915817	      0.00000000	      0.00000000	      0.00000000	    -22.49436446	     -5.61221599	    -11.44039201	     -5.29773332	     14.02150748	      5.59073031	    -29.85028748	     15.22781699	     46.74826725	      0.00000000	     34.32000000
      0.26000000	      1.36541812	     -5.36158307	    -10.46305955	      0.00000000	      0.00000000	      0.00000000	    -22.73865454	     -5.69503541	    -11.77138498	     -5.40703719	     14.14273083	      5.60340838	    -29.71811040	     15.15957871	     46.69058772	      0.00000000	     34.32000000
      0.27000000	      1.32940361	     -5.32437705	    -10.43718879	      0.00000000	      0.00000000	      0.00000000	    -22.82649386	     -5.74106133	    -11.97984433	     -5.41830817	     14.02798552	      5.65191264	    -29.54686885	     15.14053607	     46.96956511	      0.00000000	     34.32000000
      0.28000000	      1.33286266	     -5.30141058	    -10.47814790	      0.00000000	      0.00000000	      0.00000000	    -22.93011484	     -5.72874424	    -12.13881079	     -5.42496408	     14.06639316	      5.64199742	    -29.41949701	     15.02179542	     46.97875191	      0.00000000	     34.32000000
      0.29000000	      1.33910263	     -5.33852505	    -10.49170194	      0.00000000	      0.00000000	      0.00000000	    -22.92331278	     -5.72906691	    -12.12133747	     -5.42729961	     14.07605026	      5.63940318	    -29.49230047	     14.96535971	     47.58304163	      0.00000000	     34.32000000
      0.30000000	      1.53098735	     -5.40599049	    -10.39499201	      0.00000000	      0.00000000	      0.00000000	    -22.90153959	     -5.36489645	    -11.89313364	     -5.26594513	     14.54319347	      5.39048780	    -31.80540439	     13.93834789	     58.14732655	      0.00000000	     34.32000000
      0.31000000	      1.51316406	     -5.43482138	    -10.39350455	      0.00000000	      0.00000000	      0.00000000	    -22.82965347	     -5.37531263	    -11.77450805	     -5.26618162	     14.52985769	      5.39487261	    -31.41067576	     14.31900264	     53.75467686	      0.00000000	     34.32000000
      0.32000000	      1.58674512	     -5.41493593	    -10.41217844	      0.00000000	      0.00000000	      0.00000000	    -22.85685486	     -5.28260254	    -11.79984238	     -5.21551521	     14.60333542	      5.34399576	    -31.68340810	     14.03053593	     57.61675086	      0.00000000	     34.32000000
      0.33000000	      1.25377841	     -5.40503997	    -10.40752256	      0.00000000	      0.00000000	      0.00000000	    -22.73010041	     -5.70771350	    -11.80119698	     -5.39573160	     14.06235008	      5.62728235	    -30.65319683	     14.90783389	     50.36957260	      0.00000000	     34.32000000
      0.34000000	      1.28991301	     -5.39970676	    -10.38545751	      0.00000000	      0.00000000	      0.00000000	    -22.73723310	     -5.71275898	    -11.79496033	     -5.40746536	     14.09157297	      5.62230680	    -30.63806024	     14.90565263	     50.38501949	      0.00000000	     34.32000000
      0.35000000	      1.69374989	     -5.47300717	    -10.38514394	      0.00000000	      0.00000000	      0.00000000	    -22.73769579	     -5.33333549	    -11.64125981	     -5.22189229	     14.50390009	      5.38195765	    -30.12656874	     14.97918208	     49.15940069	      0.00000000	     34.32000000
      0.36000000	      1.71362118	     -5.47888219	    -10.41458180	      0.00000000	      0.00000000	      0.00000000	    -22.72183330	     -5.35790049	    -11.61995253	     -5.23454947	     14.48358012	      5.39541368	    -30.12752832	     14.96755893	     49.18310988	      0.00000000	     34.32000000
      0.37000000	      1.77284279	     -5.58778262	    -10.40021896	      0.00000000	      0.00000000	      0.00000000	    -22.59807688	     -5.28420590	    -11.56096684	     -5.11142508	     14.25182403	      5.41961625	    -28.80368097	     15.36252522	     46.72540898	      0.00000000	     34.32000000
      0.38000000	      1.69686447	     -5.65564492	    -10.36666442	      0.00000000	      0.00000000	      0.00000000	    -22.56407709	     -5.22749961	    -11.23911630	     -5.18485030	     14.71791088	      5.28375211	    -32.06461362	     14.31496776	     56.88318756	      0.00000000	     34.32000000
